<?xml version="1.0" encoding="UTF-8" standalone="no"?>
<svg
   xmlns:dc="http://purl.org/dc/elements/1.1/"
   xmlns:cc="http://creativecommons.org/ns#"
   xmlns:rdf="http://www.w3.org/1999/02/22-rdf-syntax-ns#"
   xmlns:svg="http://www.w3.org/2000/svg"
   xmlns="http://www.w3.org/2000/svg"
   xmlns:sodipodi="http://sodipodi.sourceforge.net/DTD/sodipodi-0.dtd"
   xmlns:inkscape="http://www.inkscape.org/namespaces/inkscape"
   version="1.1"
   x="0"
   y="0"
   width="47"
   height="72"
   viewBox="0 0 47 72"
   enable-background="new 0 0 47 72"
   xml:space="preserve"
   id="svg2"
   inkscape:version="0.91 r13725"
   sodipodi:docname="map_pin_add.svg"><metadata
     id="metadata16"><rdf:RDF><cc:Work
         rdf:about=""><dc:format>image/svg+xml</dc:format><dc:type
           rdf:resource="http://purl.org/dc/dcmitype/StillImage" /></cc:Work></rdf:RDF></metadata><defs
     id="defs14" /><sodipodi:namedview
     pagecolor="#ffffff"
     bordercolor="#666666"
     borderopacity="1"
     objecttolerance="10"
     gridtolerance="10"
     guidetolerance="10"
     inkscape:pageopacity="0"
     inkscape:pageshadow="2"
     inkscape:window-width="2560"
     inkscape:window-height="1361"
     id="namedview12"
     showgrid="false"
     inkscape:zoom="3.2777778"
     inkscape:cx="-54.754237"
     inkscape:cy="36"
     inkscape:window-x="1911"
     inkscape:window-y="-9"
     inkscape:window-maximized="1"
     inkscape:current-layer="svg2" /><path
     opacity="0.3"
     fill="#AA0000"
     d="M46 1H7.5C3.5 1 1 3 1 7V39c0 5 2.5 7 6.5 7H28.5l-5.3 17c-4.5 0-8.7 1.9-8.7 4.1 0 2.3 3.7 4.1 8.2 4.1 4.6 0 8.3-1.8 8.3-4.1 0-1.3-1.8-2.5-3.7-3.2L46 45.5V1z"
     id="path4" /><polygon
     fill="#000"
     points="22.7 67.4 42.7 47.4 28.1 51.3 "
     id="polygon6"
     style="fill:#AA0000;fill-opacity:1" /><polygon
     fill="#001"
     points="30.2 45 28.1 51.3 42.7 47.4 45 45 "
     id="polygon8"
     style="fill:#AA0000;fill-opacity:1" /><path
     fill="#000"
     d="M45 45V2H7.5C4 2 2 4 2 7.6v32C2 43.1 4 45 7.5 45H45z"
     id="path10"
     style="fill:#AA0000;fill-opacity:1" /></svg>